<mxfile host="app.diagrams.net" modified="2025-09-29T09:32:00.000Z" agent="5.0" etag="template" version="24.7.17">
  <diagram name="Dev Deployment Flow" id="dev-flow">
    <mxGraphModel dx="1422" dy="794" grid="1" gridSize="10" guides="1" tooltips="1" connect="1" arrows="1" fold="1" page="1" pageScale="1" pageWidth="1169" pageHeight="827" math="0" shadow="0">
      <root>
        <mxCell id="0" />
        <mxCell id="1" parent="0" />
        
        <!-- Title -->
        <mxCell id="title" value="Development Environment - Deployment Flow" style="text;html=1;strokeColor=none;fillColor=none;align=center;verticalAlign=middle;whiteSpace=wrap;rounded=0;fontSize=20;fontStyle=1;" vertex="1" parent="1">
          <mxGeometry x="350" y="20" width="469" height="30" as="geometry" />
        </mxCell>
        
        <!-- Developer -->
        <mxCell id="developer" value="Developer" style="shape=umlActor;verticalLabelPosition=bottom;verticalAlign=top;html=1;outlineConnect=0;" vertex="1" parent="1">
          <mxGeometry x="80" y="100" width="30" height="60" as="geometry" />
        </mxCell>
        
        <!-- Git Push -->
        <mxCell id="git-push" value="git push to&#xa;feature branch" style="rounded=1;whiteSpace=wrap;html=1;fillColor=#D5E8D4;strokeColor=#82B366;" vertex="1" parent="1">
          <mxGeometry x="200" y="110" width="100" height="40" as="geometry" />
        </mxCell>
        
        <!-- GitHub Actions -->
        <mxCell id="github-actions" value="GitHub Actions&#xa;Workflow Triggered" style="rounded=1;whiteSpace=wrap;html=1;fillColor=#E1D5E7;strokeColor=#9673A6;" vertex="1" parent="1">
          <mxGeometry x="380" y="110" width="120" height="40" as="geometry" />
        </mxCell>
        
        <!-- Terraform Plan -->
        <mxCell id="tf-plan" value="Terraform Plan&#xa;(Dev Environment)" style="rounded=1;whiteSpace=wrap;html=1;fillColor=#FFF2CC;strokeColor=#D6B656;" vertex="1" parent="1">
          <mxGeometry x="580" y="110" width="120" height="40" as="geometry" />
        </mxCell>
        
        <!-- Manual Approval -->
        <mxCell id="approval" value="Manual Approval&#xa;Required" style="rounded=1;whiteSpace=wrap;html=1;fillColor=#FFE6CC;strokeColor=#D79B00;" vertex="1" parent="1">
          <mxGeometry x="780" y="110" width="100" height="40" as="geometry" />
        </mxCell>
        
        <!-- Terraform Apply -->
        <mxCell id="tf-apply" value="Terraform Apply&#xa;Deploy to Dev" style="rounded=1;whiteSpace=wrap;html=1;fillColor=#D5E8D4;strokeColor=#82B366;" vertex="1" parent="1">
          <mxGeometry x="580" y="200" width="120" height="40" as="geometry" />
        </mxCell>
        
        <!-- Testing -->
        <mxCell id="testing" value="Automated Testing&#xa;& Validation" style="rounded=1;whiteSpace=wrap;html=1;fillColor=#CCE5FF;strokeColor=#0066CC;" vertex="1" parent="1">
          <mxGeometry x="380" y="200" width="120" height="40" as="geometry" />
        </mxCell>
        
        <!-- Notification -->
        <mxCell id="notification" value="Deployment&#xa;Notification" style="rounded=1;whiteSpace=wrap;html=1;fillColor=#F8CECC;strokeColor=#B85450;" vertex="1" parent="1">
          <mxGeometry x="200" y="200" width="100" height="40" as="geometry" />
        </mxCell>
        
        <!-- Arrows -->
        <mxCell id="arrow1" style="edgeStyle=orthogonalEdgeStyle;rounded=0;orthogonalLoop=1;jettySize=auto;html=1;" edge="1" parent="1" source="developer" target="git-push">
          <mxGeometry relative="1" as="geometry" />
        </mxCell>
        
        <mxCell id="arrow2" style="edgeStyle=orthogonalEdgeStyle;rounded=0;orthogonalLoop=1;jettySize=auto;html=1;" edge="1" parent="1" source="git-push" target="github-actions">
          <mxGeometry relative="1" as="geometry" />
        </mxCell>
        
        <mxCell id="arrow3" style="edgeStyle=orthogonalEdgeStyle;rounded=0;orthogonalLoop=1;jettySize=auto;html=1;" edge="1" parent="1" source="github-actions" target="tf-plan">
          <mxGeometry relative="1" as="geometry" />
        </mxCell>
        
        <mxCell id="arrow4" style="edgeStyle=orthogonalEdgeStyle;rounded=0;orthogonalLoop=1;jettySize=auto;html=1;" edge="1" parent="1" source="tf-plan" target="approval">
          <mxGeometry relative="1" as="geometry" />
        </mxCell>
        
        <mxCell id="arrow5" style="edgeStyle=orthogonalEdgeStyle;rounded=0;orthogonalLoop=1;jettySize=auto;html=1;" edge="1" parent="1" source="approval" target="tf-apply">
          <mxGeometry relative="1" as="geometry">
            <Array as="points">
              <mxPoint x="830" y="180" />
              <mxPoint x="640" y="180" />
            </Array>
          </mxGeometry>
        </mxCell>
        
        <mxCell id="arrow6" style="edgeStyle=orthogonalEdgeStyle;rounded=0;orthogonalLoop=1;jettySize=auto;html=1;" edge="1" parent="1" source="tf-apply" target="testing">
          <mxGeometry relative="1" as="geometry" />
        </mxCell>
        
        <mxCell id="arrow7" style="edgeStyle=orthogonalEdgeStyle;rounded=0;orthogonalLoop=1;jettySize=auto;html=1;" edge="1" parent="1" source="testing" target="notification">
          <mxGeometry relative="1" as="geometry" />
        </mxCell>
        
        <mxCell id="arrow8" style="edgeStyle=orthogonalEdgeStyle;rounded=0;orthogonalLoop=1;jettySize=auto;html=1;" edge="1" parent="1" source="notification" target="developer">
          <mxGeometry relative="1" as="geometry">
            <Array as="points">
              <mxPoint x="150" y="220" />
              <mxPoint x="95" y="220" />
            </Array>
          </mxGeometry>
        </mxCell>
        
      </root>
    </mxGraphModel>
  </diagram>
</mxfile>
